<?xml version="1.0" encoding="UTF-8" standalone="no"?>
<!-- Created with Inkscape (http://www.inkscape.org/) -->

<svg
   xmlns:dc="http://purl.org/dc/elements/1.1/"
   xmlns:cc="http://creativecommons.org/ns#"
   xmlns:rdf="http://www.w3.org/1999/02/22-rdf-syntax-ns#"
   xmlns:svg="http://www.w3.org/2000/svg"
   xmlns="http://www.w3.org/2000/svg"
   version="1.2"
   width="301.18109"
   height="194.8819"
   id="svg2">
  <defs
     id="defs4" />
  <metadata
     id="metadata7">
    <rdf:RDF>
      <cc:Work
         rdf:about="">
        <dc:format>image/svg+xml</dc:format>
        <dc:type
           rdf:resource="http://purl.org/dc/dcmitype/StillImage" />
        <dc:title></dc:title>
      </cc:Work>
    </rdf:RDF>
  </metadata>
  <g
     transform="translate(0,-857.48024)"
     id="layer1">
    <rect
       width="301.18109"
       height="194.8819"
       rx="24.80315"
       ry="24.80315"
       x="0"
       y="857.48029"
       id="rect2989"
       style="fill:#a02c2c;fill-opacity:1;stroke:none" />
    <g
       transform="matrix(1.022979,0,0,1.022979,115.64873,759.78614)"
       id="flowRoot3761"
       style="font-size:40px;font-style:normal;font-weight:normal;line-height:125%;letter-spacing:0px;word-spacing:0px;fill:#ffffff;fill-opacity:1;stroke:none;font-family:Sans">
      <path
         d="m 61.0325,260.71791 5.2,0 0,-14.56 c -2.9e-5,-1.38666 -0.106695,-2.45332 -0.32,-3.2 -0.213362,-0.74665 -0.613361,-1.34665 -1.2,-1.8 -0.45336,-0.39998 -1.040026,-0.70665 -1.76,-0.92 -0.720025,-0.23998 -1.480024,-0.35998 -2.28,-0.36 -1.120022,2e-5 -2.133355,0.21335 -3.04,0.64 -0.906686,0.40002 -1.826685,1.08001 -2.76,2.04 -0.133351,-0.21332 -0.266684,-0.39999 -0.4,-0.56 -0.13335,-0.15999 -0.266684,-0.30665 -0.4,-0.44 -1.093349,-1.11998 -2.480014,-1.67998 -4.16,-1.68 -1.920011,2e-5 -3.586676,0.69335 -5,2.08 -0.106674,-0.53332 -0.213341,-0.93332 -0.32,-1.2 -0.08001,-0.29332 -0.21334,-0.58665 -0.4,-0.88 l -4.84,1.32 c 0.159998,0.24001 0.279998,0.52001 0.36,0.84 0.106664,0.29335 0.186664,0.64001 0.24,1.04 0.05333,0.40001 0.09333,0.88001 0.12,1.44 0.02666,0.53334 0.04,1.17334 0.04,1.92 l 0,14.28 5.24,0 0,-14.92 c 0.586658,-0.53332 1.186657,-0.91999 1.8,-1.16 0.63999,-0.26665 1.213322,-0.39999 1.72,-0.4 0.746654,1e-5 1.239987,0.21335 1.48,0.64 0.239987,0.40001 0.359987,1.24001 0.36,2.52 l 0,13.32 5.08,0 0,-14.72 c 0.586648,-0.53332 1.19998,-0.94666 1.84,-1.24 0.639979,-0.31999 1.213312,-0.47999 1.72,-0.48 0.719977,1e-5 1.17331,0.18668 1.36,0.56 0.21331,0.37334 0.319976,1.16001 0.32,2.36 l 0,13.52"
         id="path3804"
         style="font-variant:normal;font-stretch:normal;fill:#ffffff;font-family:MetaBold-Roman;-inkscape-font-specification:MetaBold-Roman" />
      <path
         d="m 88.95125,250.39791 c -2e-5,-1.67999 -0.186686,-3.10666 -0.56,-4.28 -0.373352,-1.17332 -0.973352,-2.23999 -1.8,-3.2 -1.733349,-2.05332 -4.053347,-3.07998 -6.96,-3.08 -1.386676,2e-5 -2.653341,0.25335 -3.8,0.76 -1.120006,0.50668 -2.080005,1.24001 -2.88,2.2 -0.800003,0.93335 -1.426669,2.06668 -1.88,3.4 -0.426668,1.30668 -0.640001,2.76001 -0.64,4.36 -1e-6,1.6 0.213332,3.05334 0.64,4.36 0.453331,1.30667 1.079997,2.42667 1.88,3.36 0.799995,0.90666 1.759994,1.61333 2.88,2.12 1.146659,0.50666 2.413324,0.75999 3.8,0.76 1.599988,-1e-5 2.93332,-0.25334 4,-0.76 1.066651,-0.50667 1.98665,-1.2 2.76,-2.08 0.879982,-1.01333 1.519981,-2.14667 1.92,-3.4 0.426647,-1.25333 0.63998,-2.76 0.64,-4.52 m -5.84,-0.04 c -1.4e-5,2.42667 -0.253347,4.18667 -0.76,5.28 -0.506679,1.09333 -1.360012,1.64 -2.56,1.64 -0.533344,0 -1.066676,-0.13333 -1.6,-0.4 -0.506675,-0.29333 -0.880008,-0.72 -1.12,-1.28 -0.453341,-1.12 -0.680007,-2.84 -0.68,-5.16 -7e-6,-1.01333 0.03999,-1.89333 0.12,-2.64 0.106659,-0.74666 0.253326,-1.38666 0.44,-1.92 0.213325,-0.63999 0.559992,-1.14666 1.04,-1.52 0.506657,-0.37332 1.07999,-0.55999 1.72,-0.56 0.986655,1e-5 1.759988,0.36001 2.32,1.08 0.719986,0.93334 1.079986,2.76001 1.08,5.48"
         id="path3806"
         style="font-variant:normal;font-stretch:normal;fill:#ffffff;font-family:MetaBold-Roman;-inkscape-font-specification:MetaBold-Roman" />
      <path
         d="m 106.405,260.71791 1.28,-3.72 -9.4,0 9.04,-13.08 0,-3.68 -15.2,0 0,3.76 8.84,0 -9.64,13.4 0,3.32 15.08,0"
         id="path3808"
         style="font-variant:normal;font-stretch:normal;fill:#ffffff;font-family:MetaBold-Roman;-inkscape-font-specification:MetaBold-Roman" />
      <path
         d="m 111.28437,260.71791 5.36,0 0,-20.96 -5.36,0.84 0,20.12 m 6,-26.12 c 0,-0.93331 -0.32,-1.71998 -0.95999,-2.36 -0.61335,-0.63998 -1.37334,-0.95998 -2.28,-0.96 -0.93334,2e-5 -1.73334,0.32002 -2.40001,0.96 -0.64,0.64002 -0.96,1.42669 -0.95999,2.36 -1e-5,0.93335 0.31999,1.72002 0.95999,2.36 0.64,0.64002 1.41333,0.96002 2.32001,0.96 0.93332,2e-5 1.71999,-0.31998 2.36,-0.96 0.63999,-0.63998 0.95999,-1.42665 0.95999,-2.36"
         id="path3810"
         style="font-variant:normal;font-stretch:normal;fill:#ffffff;font-family:MetaBold-Roman;-inkscape-font-specification:MetaBold-Roman" />
      <path
         d="m 130.4275,260.63791 -0.92,-3.2 c -0.16001,0.0533 -0.26668,0.08 -0.32,0.08 l -0.28,0 c -0.50668,0 -0.86668,-0.18667 -1.08,-0.56 -0.08,-0.13333 -0.14668,-0.28 -0.2,-0.44 -0.0533,-0.16 -0.0933,-0.4 -0.12,-0.72 -10e-6,-0.32 -0.0133,-0.74667 -0.04,-1.28 -1e-5,-0.53333 -1e-5,-1.24 0,-2.12 l 0,-15.96 c -1e-5,-1.43998 -0.0267,-2.54664 -0.08,-3.32 -0.0267,-0.77331 -0.0933,-1.43998 -0.2,-2 l -5.48,1.24 c 0.10666,0.93336 0.17333,1.85336 0.2,2.76 0.0533,0.90669 0.08,2.04002 0.08,3.4 l 0,15.28 c 0,0.72 0,1.32 0,1.8 0.0267,0.48 0.0533,0.88 0.08,1.2 0.0533,0.32 0.10666,0.6 0.16,0.84 0.0533,0.24 0.13333,0.49333 0.24,0.76 0.32,0.85333 0.90666,1.53333 1.76,2.04 0.85333,0.50666 1.85333,0.75999 3,0.76 1.14666,-10e-6 2.21332,-0.18667 3.2,-0.56"
         id="path3812"
         style="font-variant:normal;font-stretch:normal;fill:#ffffff;font-family:MetaBold-Roman;-inkscape-font-specification:MetaBold-Roman" />
      <path
         d="m 141.28687,260.63791 -0.92,-3.2 c -0.16001,0.0533 -0.26667,0.08 -0.32,0.08 l -0.28,0 c -0.50667,0 -0.86667,-0.18667 -1.08,-0.56 -0.08,-0.13333 -0.14667,-0.28 -0.2,-0.44 -0.0533,-0.16 -0.0933,-0.4 -0.12,-0.72 0,-0.32 -0.0133,-0.74667 -0.04,-1.28 0,-0.53333 0,-1.24 0,-2.12 l 0,-15.96 c 0,-1.43998 -0.0267,-2.54664 -0.08,-3.32 -0.0267,-0.77331 -0.0933,-1.43998 -0.2,-2 l -5.48,1.24 c 0.10667,0.93336 0.17334,1.85336 0.2,2.76 0.0533,0.90669 0.08,2.04002 0.08,3.4 l 0,15.28 c 0,0.72 0,1.32 0,1.8 0.0267,0.48 0.0533,0.88 0.08,1.2 0.0533,0.32 0.10667,0.6 0.16,0.84 0.0533,0.24 0.13334,0.49333 0.24,0.76 0.32,0.85333 0.90667,1.53333 1.76,2.04 0.85333,0.50666 1.85333,0.75999 3,0.76 1.14666,-10e-6 2.21333,-0.18667 3.2,-0.56"
         id="path3814"
         style="font-variant:normal;font-stretch:normal;fill:#ffffff;font-family:MetaBold-Roman;-inkscape-font-specification:MetaBold-Roman" />
      <path
         d="m 157.7425,261.75791 2.84,-3.28 c -0.45335,-0.34667 -0.81335,-0.66667 -1.08,-0.96 -0.24002,-0.32 -0.42668,-0.65333 -0.56,-1 -0.13335,-0.34667 -0.21335,-0.72 -0.24,-1.12 -0.0267,-0.42667 -0.04,-0.92 -0.04,-1.48 l 0.12,-6.88 0,-1.4 c -2e-5,-0.55999 -0.0267,-0.99999 -0.08,-1.32 -0.0533,-0.34665 -0.14668,-0.66665 -0.28,-0.96 -0.40002,-1.14665 -1.16002,-2.02665 -2.28,-2.64 -1.12001,-0.61332 -2.56001,-0.91998 -4.32,-0.92 -0.93334,2e-5 -1.85334,0.0933 -2.76,0.28 -0.88001,0.18668 -1.82667,0.49335 -2.84,0.92 -0.72,0.29335 -1.32,0.56001 -1.8,0.8 -0.48,0.24001 -0.98667,0.53335 -1.52,0.88 l 2.28,3.84 c 1.11999,-0.74666 2.17333,-1.31999 3.16,-1.72 0.98666,-0.39999 1.90666,-0.59999 2.76,-0.6 0.98666,1e-5 1.62665,0.22668 1.92,0.68 0.31999,0.42668 0.47999,1.21334 0.48,2.36 l 0,0.84 c -0.13335,-0.0267 -0.33335,-0.04 -0.6,-0.04 l -0.6,0 c -3.30667,1e-5 -5.77334,0.57334 -7.4,1.72 -1.62667,1.12001 -2.44,2.89334 -2.44,5.32 0,2.08 0.58666,3.66666 1.76,4.76 1.2,1.09333 2.95999,1.63999 5.28,1.64 1.73332,-1e-5 3.10666,-0.37334 4.12,-1.12 0.21332,-0.13334 0.41332,-0.29334 0.6,-0.48 0.21332,-0.18667 0.42665,-0.38667 0.64,-0.6 0.26665,0.53333 0.65332,1.01333 1.16,1.44 0.53332,0.42666 1.10665,0.77333 1.72,1.04 m -4.56,-10 0.24,0 -0.08,4.4 c -0.80001,0.93333 -1.73334,1.4 -2.8,1.4 -0.69334,0 -1.26667,-0.24 -1.72,-0.72 -0.42667,-0.50667 -0.64001,-1.16 -0.64,-1.96 -1e-5,-1.22666 0.35999,-2.05333 1.08,-2.48 0.74666,-0.42666 2.05332,-0.64 3.92,-0.64"
         id="path3816"
         style="font-variant:normal;font-stretch:normal;fill:#ffffff;font-family:MetaBold-Roman;-inkscape-font-specification:MetaBold-Roman" />
    </g>
  </g>
</svg>
