<?xml version="1.0" encoding="utf-8"?>
<!-- Generator: Adobe Illustrator 15.0.0, SVG Export Plug-In . SVG Version: 6.00 Build 0)  -->
<!DOCTYPE svg PUBLIC "-//W3C//DTD SVG 1.1//EN" "http://www.w3.org/Graphics/SVG/1.1/DTD/svg11.dtd">
<svg version="1.1"
	 id="svg2" sodipodi:docname="remo_card_back.svg" inkscape:version="0.47 r22583" xmlns:sodipodi="http://sodipodi.sourceforge.net/DTD/sodipodi-0.dtd" xmlns:inkscape="http://www.inkscape.org/namespaces/inkscape" xmlns:rdf="http://www.w3.org/1999/02/22-rdf-syntax-ns#" xmlns:svg="http://www.w3.org/2000/svg" xmlns:cc="http://creativecommons.org/ns#" xmlns:dc="http://purl.org/dc/elements/1.1/"
	 xmlns="http://www.w3.org/2000/svg" xmlns:xlink="http://www.w3.org/1999/xlink" x="0px" y="0px" width="301.182px"
	 height="194.882px" viewBox="0 0 301.182 194.882" enable-background="new 0 0 301.182 194.882" xml:space="preserve">
<sodipodi:namedview  pagecolor="#ffffff" objecttolerance="10" borderopacity="1" bordercolor="#666666" guidetolerance="10" gridtolerance="10" inkscape:pageopacity="0" inkscape:pageshadow="2" inkscape:window-width="1920" inkscape:window-height="1003" id="namedview2829" showgrid="false" inkscape:cy="95.936069" inkscape:zoom="1.3290101" inkscape:cx="150.59055" inkscape:window-x="0" inkscape:window-y="25" inkscape:window-maximized="1" inkscape:current-layer="layer1">
	</sodipodi:namedview>
<defs>
	
	
		<inkscape:perspective  id="perspective2831" sodipodi:type="inkscape:persp3d" inkscape:vp_x="0 : 97.440948 : 1" inkscape:vp_y="0 : 1000 : 0" inkscape:vp_z="301.18109 : 97.440948 : 1" inkscape:persp3d-origin="150.59055 : 64.960632 : 1">
		</inkscape:perspective>
</defs>
<g id="layer1" transform="translate(0,-857.48024)">
	<rect id="rect2989" x="0" y="857.48" fill="#A02C2C" width="301.182" height="194.882"/>
	<g enable-background="new    ">
		<path fill="#FFFFFF" d="M177.757,1012.154c0-1.23-0.103-2.036-0.308-2.419c-0.205-0.382-0.677-0.574-1.414-0.574
			c-0.52,0-1.106,0.158-1.763,0.472c-0.656,0.314-1.285,0.745-1.886,1.291v15.086h-5.206v-13.617c0-1.309-0.125-2.174-0.373-2.597
			c-0.247-0.423-0.756-0.635-1.527-0.635c-0.523,0-1.107,0.131-1.754,0.39c-0.647,0.259-1.273,0.66-1.88,1.206v15.253h-5.329
			v-14.635c0-0.765-0.014-1.428-0.041-1.988c-0.027-0.56-0.068-1.045-0.123-1.455s-0.13-0.771-0.226-1.086
			c-0.097-0.314-0.226-0.595-0.39-0.841l4.961-1.353c0.19,0.301,0.334,0.595,0.43,0.882c0.096,0.286,0.198,0.703,0.308,1.25
			c1.448-1.421,3.157-2.132,5.124-2.132c1.723,0,3.143,0.574,4.264,1.722c0.137,0.137,0.272,0.287,0.41,0.451
			c0.137,0.164,0.272,0.355,0.41,0.573c0.955-0.983,1.898-1.687,2.828-2.11c0.929-0.424,1.967-0.636,3.115-0.636
			c0.82,0,1.599,0.116,2.336,0.349c0.738,0.232,1.34,0.554,1.805,0.963c0.601,0.465,1.01,1.08,1.229,1.845
			c0.218,0.766,0.328,1.859,0.328,3.279v14.922h-5.329V1012.154z"/>
		<path fill="#FFFFFF" d="M205.694,1020.065c-0.422,1.285-1.084,2.446-1.983,3.484c-0.791,0.902-1.731,1.613-2.823,2.132
			c-1.09,0.519-2.454,0.779-4.09,0.779c-1.418,0-2.707-0.261-3.865-0.779c-1.16-0.519-2.148-1.25-2.966-2.193
			c-0.819-0.942-1.452-2.083-1.902-3.423c-0.45-1.338-0.675-2.828-0.675-4.468s0.225-3.136,0.675-4.489
			c0.45-1.353,1.083-2.514,1.902-3.484c0.817-0.97,1.806-1.714,2.966-2.233c1.158-0.52,2.447-0.779,3.865-0.779
			c2.972,0,5.344,1.053,7.117,3.156c0.846,0.984,1.459,2.077,1.841,3.279c0.382,1.203,0.573,2.665,0.573,4.387
			C206.329,1017.237,206.117,1018.781,205.694,1020.065z M199.278,1009.814c-0.574-0.735-1.367-1.104-2.378-1.104
			c-0.656,0-1.237,0.19-1.742,0.572c-0.507,0.382-0.868,0.899-1.087,1.553c-0.191,0.545-0.334,1.199-0.43,1.962
			c-0.096,0.764-0.144,1.662-0.144,2.697c0,2.371,0.231,4.129,0.696,5.272c0.246,0.573,0.636,1.002,1.168,1.288
			c0.533,0.286,1.072,0.429,1.62,0.429c1.229,0,2.104-0.559,2.624-1.676c0.518-1.117,0.778-2.915,0.778-5.395
			C200.385,1012.634,200.015,1010.767,199.278,1009.814z"/>
		<path fill="#FFFFFF" d="M208.829,1026.009v-3.378l9.879-13.634h-9.059v-3.895h15.577v3.735l-9.265,13.276h9.634l-1.312,3.895
			H208.829z"/>
		<path fill="#FFFFFF" d="M234.45,1001.659c-0.656,0.655-1.463,0.983-2.418,0.983c-0.93,0-1.723-0.328-2.379-0.983
			c-0.655-0.656-0.983-1.462-0.983-2.419c0-0.956,0.335-1.763,1.005-2.419c0.669-0.655,1.482-0.983,2.439-0.983
			c0.928,0,1.714,0.328,2.356,0.983c0.642,0.656,0.964,1.463,0.964,2.419C235.434,1000.198,235.106,1001.003,234.45,1001.659z
			 M229.285,1005.39l5.534-0.861v21.48h-5.534V1005.39z"/>
		<path fill="#FFFFFF" d="M245.604,1026.501c-1.158,0-2.169-0.261-3.03-0.779c-0.862-0.519-1.454-1.216-1.777-2.091
			c-0.108-0.272-0.188-0.532-0.243-0.778c-0.054-0.246-0.102-0.533-0.141-0.861c-0.041-0.328-0.068-0.737-0.082-1.229
			c-0.013-0.492-0.02-1.106-0.02-1.845v-15.659c0-1.394-0.02-2.556-0.061-3.484s-0.117-1.872-0.227-2.829l5.539-1.271
			c0.107,0.574,0.182,1.258,0.222,2.05c0.04,0.793,0.062,1.927,0.062,3.402v16.356c0,0.901,0.006,1.626,0.02,2.173
			s0.027,0.983,0.041,1.312s0.048,0.574,0.103,0.737c0.055,0.164,0.123,0.314,0.205,0.451c0.218,0.383,0.587,0.574,1.106,0.574
			h0.287c0.055,0,0.164-0.027,0.328-0.082l0.943,3.279C247.868,1026.31,246.776,1026.501,245.604,1026.501z"/>
		<path fill="#FFFFFF" d="M256.713,1026.501c-1.158,0-2.169-0.261-3.03-0.779s-1.454-1.216-1.777-2.091
			c-0.107-0.272-0.188-0.532-0.242-0.778c-0.055-0.246-0.102-0.533-0.142-0.861s-0.067-0.737-0.081-1.229s-0.02-1.106-0.02-1.845
			v-15.659c0-1.394-0.021-2.556-0.062-3.484s-0.116-1.872-0.226-2.829l5.539-1.271c0.107,0.574,0.181,1.258,0.221,2.05
			c0.041,0.793,0.062,1.927,0.062,3.402v16.356c0,0.901,0.007,1.626,0.021,2.173s0.027,0.983,0.041,1.312s0.047,0.574,0.102,0.737
			c0.055,0.164,0.123,0.314,0.205,0.451c0.219,0.383,0.588,0.574,1.107,0.574h0.287c0.055,0,0.164-0.027,0.328-0.082l0.942,3.279
			C258.977,1026.31,257.885,1026.501,256.713,1026.501z"/>
		<path fill="#FFFFFF" d="M275.148,1026.009c-0.53-0.437-0.932-0.929-1.203-1.476c-0.218,0.219-0.429,0.424-0.632,0.614
			c-0.205,0.192-0.416,0.356-0.633,0.492c-1.033,0.765-2.434,1.148-4.201,1.148c-2.367,0-4.154-0.564-5.364-1.69
			c-1.21-1.128-1.815-2.764-1.815-4.908c0-2.502,0.834-4.337,2.501-5.505s4.194-1.753,7.583-1.753h0.615
			c0.273,0,0.479,0.015,0.615,0.041v-0.843c0-1.15-0.158-1.947-0.472-2.389c-0.314-0.441-0.978-0.662-1.988-0.662
			c-0.874,0-1.817,0.204-2.828,0.614c-1.012,0.41-2.091,0.998-3.239,1.763l-2.336-3.936c0.547-0.354,1.066-0.655,1.558-0.901
			c0.492-0.246,1.106-0.519,1.845-0.82c1.038-0.437,2.016-0.751,2.932-0.942c0.914-0.191,1.851-0.287,2.808-0.287
			c1.794,0,3.255,0.314,4.386,0.943s1.897,1.53,2.302,2.705c0.134,0.301,0.229,0.622,0.282,0.963c0.055,0.343,0.081,0.8,0.081,1.374
			v1.435l-0.123,7.051c0,0.574,0.013,1.073,0.041,1.496c0.026,0.424,0.108,0.813,0.245,1.168c0.137,0.355,0.335,0.69,0.596,1.005
			c0.259,0.314,0.621,0.649,1.086,1.004l-2.906,3.361C276.257,1026.801,275.678,1026.446,275.148,1026.009z M268.354,1017.474
			c-0.74,0.432-1.11,1.267-1.11,2.506c0,0.81,0.222,1.463,0.665,1.961c0.444,0.499,1.016,0.748,1.716,0.748
			c1.075,0,2.019-0.472,2.825-1.415l0.082-4.447h-0.242C270.405,1016.826,269.094,1017.042,268.354,1017.474z"/>
	</g>
</g>
</svg>
