<?xml version="1.0" encoding="utf-8"?>
<!-- Generator: Adobe Illustrator 15.0.0, SVG Export Plug-In . SVG Version: 6.00 Build 0)  -->
<!DOCTYPE svg PUBLIC "-//W3C//DTD SVG 1.1//EN" "http://www.w3.org/Graphics/SVG/1.1/DTD/svg11.dtd">
<svg version="1.1"
	 id="svg2" sodipodi:docname="remo_card_front.svg" inkscape:version="0.47 r22583" xmlns:inkscape="http://www.inkscape.org/namespaces/inkscape" xmlns:sodipodi="http://sodipodi.sourceforge.net/DTD/sodipodi-0.dtd" xmlns:rdf="http://www.w3.org/1999/02/22-rdf-syntax-ns#" xmlns:svg="http://www.w3.org/2000/svg" xmlns:cc="http://creativecommons.org/ns#" xmlns:dc="http://purl.org/dc/elements/1.1/"
	 xmlns="http://www.w3.org/2000/svg" xmlns:xlink="http://www.w3.org/1999/xlink" x="0px" y="0px" width="301.182px"
	 height="194.882px" viewBox="0 0 301.182 194.882" enable-background="new 0 0 301.182 194.882" xml:space="preserve">
<g id="layer1" transform="translate(0,-857.48024)">
	<path id="rect2989" fill="#A02C2C" d="M24.803,857.48h251.574c13.698,0,24.804,11.105,24.804,24.803v145.276
		c0,13.697-11.105,24.803-24.804,24.803H24.803C11.105,1052.363,0,1041.257,0,1027.56V882.283
		C0,868.585,11.105,857.48,24.803,857.48z"/>
</g>
<text transform="matrix(1 0 0 1 148.115 42.5776)" fill="#FFFFFF" font-family="'MetaBold-Roman'" font-size="13">Name Surname</text>
<text transform="matrix(1 0 0 1 148.0901 55.1919)" fill="#FFFFFF" font-family="'MetaBold-Italic'" font-size="11">mozilla representative</text>
<text transform="matrix(1 0 0 1 148.4749 82.0942)" fill="#FFFFFF" font-family="'MetaBold-Italic'" font-size="9">email@domain.com</text>
<text transform="matrix(1 0 0 1 148.2849 94.3315)" fill="#FFFFFF" font-family="'MetaBold-Italic'" font-size="9">http://domain.com</text>
<text transform="matrix(1 0 0 1 148.2849 106.6694)" fill="#FFFFFF" font-family="'MetaBold-Italic'" font-size="9">http://mozillareps.org</text>
<text transform="matrix(1 0 0 1 148.925 135.8276)" fill="#FFFFFF" font-family="'MetaBoldLF-Caps'" font-size="10">twitter</text>
<text transform="matrix(1 0 0 1 194.6121 135.9575)" fill="#FFFFFF" font-family="'MetaBold-Italic'" font-size="10">@twitterhandle</text>
<text transform="matrix(1 0 0 1 148.2249 147.1929)" fill="#FFFFFF" font-family="'MetaBoldLF-Caps'" font-size="10">identi.ca</text>
<text transform="matrix(1 0 0 1 194.5203 147.3228)" fill="#FFFFFF" font-family="'MetaBold-Italic'" font-size="10">@indenticahandle</text>
<text transform="matrix(1 0 0 1 194.9226 175.7905)" fill="#FFFFFF" font-family="'MetaBoldLF-Roman'" font-size="12">www.mozilla.org</text>
<g id="g3025" transform="matrix(0.4050236,0,0,0.4050236,-252.11592,-18.567531)">
	<g id="g3">
		<path id="path5" fill="#414042" d="M889.688,211.846c-0.608-6.302-7.699-6.662-9.312-6.662c-0.21,0-0.326,0.007-0.326,0.007
			c-1.456,0.025-2.881,0.039-4.292,0.039c-47.258,0-66.728-14.039-68.16-15.119v-0.07c0,0-0.015,0.015-0.039,0.035
			c-0.034-0.021-0.053-0.035-0.053-0.035l0.005,0.07c-1.435,1.08-20.904,15.119-68.16,15.119c-1.408,0-2.831-0.013-4.292-0.039
			c0,0-0.113-0.007-0.323-0.007c-1.62,0-8.704,0.36-9.314,6.662c-0.687,7.114,3.904,80.113,2.522,115.234
			c-1.379,35.123,12.398,41.319,33.744,47.516c20.646,5.996,29.7,5.871,42.105,19.255c1.121,1.43,2.45,2.674,3.692,2.674
			c1.133,0,2.269-0.67,3.45-2.262c12.605-13.792,21.635-13.611,42.484-19.668c21.348-6.194,35.128-12.393,33.744-47.516
			C885.79,291.96,890.378,218.96,889.688,211.846z"/>
		<path id="path7" fill="#FFFFFF" d="M891.962,198.732c-0.627-6.475-7.911-6.846-9.572-6.846c-0.217,0-0.335,0.008-0.335,0.008
			c-1.495,0.024-2.963,0.039-4.41,0.039c-48.565,0-68.572-14.428-70.046-15.537v-0.072c0,0-0.015,0.014-0.039,0.036
			c-0.034-0.022-0.055-0.036-0.055-0.036l0.005,0.072c-1.473,1.109-21.481,15.537-70.043,15.537c-1.447,0-2.913-0.015-4.41-0.039
			c0,0-0.118-0.008-0.333-0.008c-1.666,0-8.945,0.371-9.572,6.846c-0.706,7.313,4.012,82.329,2.594,118.421
			s12.74,42.462,34.674,48.83c21.22,6.16,30.522,6.035,43.272,19.786c1.15,1.471,2.517,2.746,3.793,2.746
			c1.162,0,2.332-0.69,3.549-2.324c12.948-14.17,22.228-13.984,43.656-20.208c21.939-6.368,36.097-12.738,34.677-48.83
			C887.952,281.061,892.671,206.047,891.962,198.732L891.962,198.732z"/>
		
			<radialGradient id="path14_1_" cx="3200.1055" cy="-1195.3605" r="87.0943" gradientTransform="matrix(0.405 0 0 -0.405 -488.5641 -201.7299)" gradientUnits="userSpaceOnUse">
			<stop  offset="0.4417" style="stop-color:#EF4136"/>
			<stop  offset="1" style="stop-color:#BE1E2D"/>
		</radialGradient>
		<path id="path14" fill="url(#path14_1_)" d="M881.585,317.698c-0.895-22.99,0.622-60.753,1.731-88.328
			c0.514-12.728,1.047-25.869,0.921-29.189c-0.444-0.145-1.14-0.268-1.835-0.268l-0.19,0.014l-0.017-0.011
			c-1.521,0.028-3.057,0.04-4.555,0.04c-38.51,0-60.331-8.885-69.59-13.91h-0.991c-9.263,5.026-31.084,13.91-69.595,13.91
			c-1.49,0-3.021-0.012-4.545-0.04l-0.236-0.004h-0.005c-0.682,0.004-1.362,0.129-1.808,0.268
			c-0.118,3.312,0.41,16.457,0.923,29.189c1.107,27.575,2.63,65.338,1.731,88.328c-0.764,19.402,3.419,26.469,6.631,30.098
			c4.439,5.02,11.308,7.728,22.438,10.954c4.07,1.184,7.778,2.148,11.053,3.002c13.182,3.438,22.898,5.97,33.912,17.042
			c10.959-11.053,20.273-13.481,33.92-17.047c3.27-0.854,6.975-1.813,11.043-2.997c11.125-3.228,17.994-5.934,22.433-10.954
			C878.168,344.168,882.351,337.101,881.585,317.698z"/>
	</g>
	<g id="g16">
		<g id="g18">
			
				<circle id="circle20" sodipodi:ry="9.3859997" sodipodi:rx="9.3859997" sodipodi:cy="234.83" sodipodi:cx="807.53699" fill="#FFFFFF" cx="807.537" cy="234.83" r="9.386">
			</circle>
			<path id="path22" fill="#FFFFFF" d="M816.573,319.548c0,2.175-1.765,3.94-3.94,3.94h-10.192c-2.18,0-3.942-1.765-3.942-3.94
				v-52.609c0-2.176,1.765-3.941,3.942-3.941h10.192c2.177,0,3.94,1.766,3.94,3.941V319.548z"/>
			<path id="path24" fill="#FFFFFF" d="M827.004,277.12c0,2.178-1.765,3.941-3.942,3.941h-31.05c-2.177,0-3.942-1.764-3.942-3.941
				v-26.531c0-2.176,1.765-3.941,3.942-3.941h31.05c2.177,0,3.942,1.766,3.942,3.941V277.12z"/>
		</g>
		<g id="g26">
			<g id="g28">
				
					<circle id="circle30" sodipodi:ry="7.3000002" sodipodi:rx="7.3000002" sodipodi:cy="242.864" sodipodi:cx="847.70898" fill="#FFFFFF" cx="847.708" cy="242.864" r="7.3">
				</circle>
				<path id="path32" fill="#FFFFFF" d="M854.739,310.303c0,1.693-1.374,3.065-3.067,3.065h-7.928c-1.693,0-3.065-1.372-3.065-3.065
					v-42.466c0-1.693,1.372-3.066,3.065-3.066h7.928c1.693,0,3.067,1.373,3.067,3.066V310.303z"/>
				<path id="path34" fill="#FFFFFF" d="M862.85,275.758c0,1.693-1.372,3.066-3.067,3.066h-24.15c-1.693,0-3.064-1.373-3.064-3.066
					v-20.637c0-1.691,1.372-3.064,3.064-3.064h24.15c1.695,0,3.067,1.373,3.067,3.064V275.758z"/>
			</g>
			<g id="g36">
				
					<circle id="circle38" sodipodi:ry="7.3000002" sodipodi:rx="7.3000002" sodipodi:cy="242.86301" sodipodi:cx="767.40601" fill="#FFFFFF" cx="767.406" cy="242.863" r="7.3">
				</circle>
				<path id="path40" fill="#FFFFFF" d="M774.434,310.303c0,1.693-1.372,3.065-3.065,3.065h-7.928c-1.693,0-3.067-1.372-3.067-3.065
					v-42.466c0-1.693,1.374-3.066,3.067-3.066h7.928c1.693,0,3.065,1.373,3.065,3.066V310.303z"/>
				<path id="path42" fill="#FFFFFF" d="M782.545,275.758c0,1.693-1.372,3.066-3.065,3.066h-24.152c-1.69,0-3.065-1.373-3.065-3.066
					v-20.637c0-1.691,1.374-3.064,3.065-3.064h24.152c1.693,0,3.065,1.373,3.065,3.064V275.758L782.545,275.758z"/>
			</g>
		</g>
	</g>
</g>
</svg>
